<svg width="213.000000" height="32.000000" viewBox="0 0 213 32" fill="none" xmlns="http://www.w3.org/2000/svg" xmlns:xlink="http://www.w3.org/1999/xlink">
	<desc>
			Created with Pixso.
	</desc>
	<defs/>
	<path id="Vector" d="M18.0239 27.6587L17.5365 27.6587C17.5365 27.6534 17.5341 27.6483 17.5331 27.6434L17.5197 27.5837C17.5112 27.5446 17.502 27.5057 17.4924 27.4672C17.4883 27.449 17.4838 27.4308 17.4794 27.4127C17.4667 27.3618 17.4534 27.3109 17.4398 27.26L17.4357 27.2455C17.4206 27.1904 17.4049 27.1355 17.3885 27.0808L17.3721 27.0281C17.3608 26.9905 17.3488 26.9532 17.3379 26.9159C17.3314 26.8955 17.3246 26.8755 17.3181 26.8553C17.3062 26.8193 17.2938 26.7834 17.2812 26.7478C17.2747 26.729 17.2678 26.7098 17.2614 26.6914C17.2454 26.6466 17.229 26.6023 17.2121 26.5582C17.2084 26.5488 17.2053 26.5397 17.2015 26.5303C17.1817 26.4785 17.1608 26.427 17.1396 26.3755C17.1321 26.3567 17.1243 26.3381 17.1165 26.3197C17.1021 26.2874 17.0877 26.2517 17.073 26.2179L17.0453 26.1554C17.031 26.123 17.0163 26.0906 17.0012 26.0582C16.992 26.0381 16.9824 26.0177 16.9728 25.9976C16.9554 25.9603 16.9387 25.9233 16.9192 25.8867C16.912 25.8728 16.9055 25.8586 16.8984 25.8444C16.8741 25.796 16.8491 25.7471 16.8239 25.7004L16.7897 25.6399L16.7415 25.552L16.7039 25.4872C16.6882 25.46 16.6724 25.4329 16.6564 25.4056C16.6437 25.3835 16.6307 25.3616 16.6177 25.3408C16.6 25.3113 16.5836 25.2825 16.5641 25.2533L16.5149 25.1742C16.4916 25.1379 16.4684 25.1013 16.4445 25.0653C16.4294 25.0426 16.4144 25.0203 16.399 24.9979C16.3836 24.9756 16.3669 24.95 16.3505 24.9263C16.334 24.9027 16.3163 24.879 16.3013 24.8557C16.2862 24.8324 16.2698 24.8113 16.2537 24.7909C16.2377 24.7705 16.2195 24.7433 16.2021 24.7196L16.1539 24.6548C16.1198 24.6117 16.0883 24.5686 16.0548 24.5251L16.008 24.4658C15.9882 24.4409 15.9677 24.4163 15.9475 24.3916L15.9023 24.3373C15.8815 24.3123 15.8604 24.2876 15.8391 24.2627L15.7947 24.2115L15.7284 24.1364L15.6891 24.0929C15.6074 24.0032 15.5237 23.9147 15.4379 23.8285L15.4003 23.7905L15.3217 23.7137L15.283 23.6769C15.2557 23.6506 15.2283 23.6246 15.2007 23.599L15.1723 23.5731C15.0756 23.484 14.9761 23.3972 14.8749 23.314L14.8472 23.2909C14.816 23.265 14.7846 23.2394 14.7529 23.2141L14.7214 23.1888C14.6873 23.1628 14.6562 23.1373 14.623 23.1117L14.6063 23.0991C14.4945 23.0135 14.38 22.9302 14.2645 22.8502L14.2484 22.8389C14.2119 22.814 14.1753 22.7893 14.1384 22.765L14.1141 22.7491C14.0765 22.7241 14.0386 22.6998 14.0006 22.6755L13.9941 22.6716C13.8683 22.5919 13.7402 22.5156 13.6096 22.4425L13.6045 22.4393C13.5631 22.4163 13.5218 22.3939 13.4804 22.3716L13.4623 22.3618C13.2422 22.2441 13.0161 22.1361 12.7842 22.0378L12.7698 22.0316C12.7086 22.0057 12.6471 21.9808 12.5849 21.9562L13.8082 21.9562C14.0074 21.9562 14.1691 21.7388 14.1691 21.4701C14.1691 21.2015 14.0074 20.984 13.8082 20.984L13.4438 20.984C13.4664 20.9296 13.4913 20.868 13.5184 20.7987C13.8629 20.5952 14.4692 20.1616 15.0708 19.3651L15.0756 19.359C15.1212 19.2993 15.1659 19.2377 15.2099 19.174L15.2188 19.1614C15.2625 19.0988 15.3063 19.0343 15.3494 18.9669L15.361 18.9491C15.3815 18.9166 15.402 18.8843 15.4225 18.8518C15.4225 18.8518 15.4225 18.8492 15.4249 18.8477C15.446 18.8153 15.4669 18.7797 15.4878 18.745L15.5011 18.7225C15.5189 18.6927 15.537 18.6624 15.5544 18.6315C15.5579 18.626 15.5613 18.6205 15.5643 18.6146C15.5845 18.5797 15.6047 18.5441 15.6245 18.5081L15.6382 18.4832C15.6545 18.4532 15.6707 18.4232 15.6867 18.3927C15.6915 18.3843 15.6963 18.3755 15.7007 18.3668C15.7198 18.3302 15.739 18.2932 15.7581 18.2556L15.7715 18.2294C15.7865 18.199 15.8019 18.1678 15.8169 18.1367L15.8333 18.1042C15.8518 18.066 15.8699 18.0272 15.888 17.988L15.8993 17.963C15.9143 17.9307 15.929 17.8982 15.9437 17.8658L15.9612 17.8269C15.9783 17.7877 15.9954 17.7482 16.0117 17.7084C16.0148 17.7012 16.0179 17.6937 16.0206 17.6866C16.036 17.65 16.051 17.6128 16.0661 17.5752L16.0832 17.5323C16.0972 17.4967 16.1112 17.4608 16.1249 17.4248L16.1351 17.3976C16.1512 17.3549 16.1669 17.311 16.1826 17.2679L16.199 17.2219C16.2114 17.1876 16.2233 17.1526 16.2353 17.1176C16.2397 17.1046 16.2441 17.0917 16.2483 17.0787C16.2633 17.0341 16.2783 16.9883 16.293 16.9426C16.2979 16.9268 16.303 16.9102 16.3077 16.8953L16.3419 16.7887C16.3464 16.7732 16.3511 16.7563 16.3556 16.7423C16.3696 16.6954 16.3836 16.6475 16.397 16.5991C16.4014 16.5839 16.4055 16.5684 16.4096 16.5529C16.4199 16.5155 16.4301 16.4783 16.44 16.4403C16.4445 16.4232 16.4489 16.406 16.4537 16.3888C16.4663 16.339 16.479 16.2887 16.4913 16.2378L16.5015 16.1954C16.5111 16.1549 16.5207 16.114 16.5299 16.0729L16.5422 16.0178C16.5538 15.965 16.5654 15.9122 16.5764 15.8584C16.5788 15.848 16.5808 15.8373 16.5829 15.8259C16.5925 15.7797 16.6017 15.7327 16.6106 15.6857C16.6143 15.6665 16.6177 15.6475 16.6215 15.6283C16.6304 15.5801 16.6389 15.5311 16.6475 15.4828C16.6492 15.4724 16.6512 15.4624 16.653 15.4524C16.6625 15.3954 16.6719 15.3379 16.681 15.28C16.6841 15.2605 16.6871 15.2411 16.6899 15.2213C16.697 15.1743 16.7039 15.1271 16.7107 15.0791L16.7169 15.035C16.7251 14.9753 16.7329 14.9154 16.7405 14.8545C16.7429 14.8353 16.7449 14.8163 16.7473 14.7969C16.7532 14.7484 16.7587 14.6998 16.7637 14.651C16.7657 14.6335 16.7678 14.6163 16.7695 14.5989C16.7761 14.5361 16.7823 14.473 16.788 14.4093C16.788 14.3915 16.791 14.3737 16.7924 14.3555C16.7969 14.3043 16.8013 14.2528 16.8051 14.2009C16.8051 14.1818 16.8081 14.1627 16.8095 14.1436C16.8143 14.0775 16.8187 14.0109 16.8228 13.944C16.8228 13.9287 16.8228 13.9115 16.8252 13.8979C16.8283 13.8422 16.8314 13.7861 16.8337 13.7297C16.8337 13.7094 16.8337 13.689 16.8365 13.6686C16.8392 13.5989 16.842 13.5288 16.844 13.4579C16.844 13.4481 16.844 13.4381 16.844 13.4281C16.8458 13.365 16.8472 13.3013 16.8481 13.2369C16.8481 13.2158 16.8481 13.1948 16.8481 13.1737C16.8481 13.1046 16.8481 13.035 16.8481 12.9651L16.8481 12.9489C16.8481 12.8743 16.8481 12.7988 16.8481 12.722L16.8481 12.6572C16.8481 12.5924 16.8454 12.5243 16.8437 12.4569L16.8437 12.4203C16.8413 12.3425 16.8382 12.2638 16.8351 12.1847C16.8351 12.1643 16.8331 12.1436 16.8324 12.1232C16.8294 12.0566 16.826 11.9896 16.8221 11.9222C16.8221 11.9058 16.8221 11.8899 16.8194 11.8721C16.8146 11.791 16.8094 11.7094 16.8037 11.6271L16.7996 11.5697C16.7944 11.501 16.7893 11.432 16.7835 11.3623C16.7835 11.3423 16.7805 11.3221 16.7787 11.302C16.7715 11.2178 16.7637 11.1326 16.7555 11.047C16.7555 11.0309 16.7521 11.0146 16.7507 10.998C16.7435 10.9252 16.7357 10.8517 16.7278 10.7775C16.7254 10.7551 16.723 10.733 16.7203 10.7107C16.7107 10.6226 16.7004 10.5341 16.6895 10.4443C16.6895 10.4333 16.6865 10.4222 16.6851 10.4119C16.6753 10.3315 16.6649 10.2507 16.654 10.1696C16.6506 10.1455 16.6475 10.1216 16.644 10.0977C16.6313 10.0056 16.6182 9.91284 16.6047 9.81921C15.2375 0.592529 5.54907 2.08997 5.54907 2.08997L5.85938 4.07239L0 9.9408L0.255981 12.2068L2.47565 13.5029C2.57458 13.2645 2.7016 13.0375 2.85431 12.826C4.28644 11.2599 7.06488 10.0305 7.86029 9.77551C8.01953 9.72461 8.11011 9.69897 8.11011 9.69897C4.3056 14.3672 4.73828 19.7151 4.90784 20.9899C4.73145 21.0223 4.59509 21.2241 4.59509 21.4705C4.59509 21.7388 4.75677 21.9565 4.95605 21.9565L6.17932 21.9565C4.14484 22.7639 2.52991 24.3015 1.68707 26.2339C1.6861 26.2365 1.685 26.239 1.68365 26.2416C1.62146 26.385 1.5636 26.5305 1.51007 26.6781C1.51013 26.6796 1.51013 26.6812 1.51007 26.6826C1.49573 26.7228 1.48169 26.7629 1.46802 26.8035C1.46289 26.8181 1.45776 26.8326 1.45294 26.8475C1.44067 26.8839 1.42926 26.9204 1.41876 26.9574C1.41266 26.9762 1.4068 26.9954 1.401 27.0142C1.39008 27.0488 1.37952 27.0837 1.36926 27.1188L1.35077 27.1836C1.34119 27.2159 1.33167 27.2506 1.32275 27.2844C1.31628 27.3083 1.31012 27.332 1.30396 27.356C1.29578 27.3884 1.28723 27.4208 1.27936 27.4532C1.27148 27.4856 1.26398 27.5179 1.25647 27.5524C1.2489 27.5867 1.23938 27.6268 1.23114 27.6644L0.743408 27.6644C0.649597 27.6625 0.556335 27.6783 0.469116 27.7111C0.381836 27.7437 0.302368 27.7926 0.235291 27.8547C0.168213 27.917 0.114929 27.9912 0.0785522 28.0732C0.0421753 28.1552 0.0234375 28.2432 0.0234375 28.3322C0.0234375 28.4211 0.0421753 28.5092 0.0785522 28.5911C0.114929 28.6731 0.168213 28.7473 0.235291 28.8096C0.302368 28.8717 0.381836 28.9207 0.469116 28.9532C0.556335 28.986 0.649597 29.0018 0.743408 28.9999L18.03 28.9999C18.1238 29.0018 18.2171 28.986 18.3043 28.9532C18.3916 28.9207 18.4711 28.8717 18.5381 28.8096C18.6052 28.7473 18.6585 28.6731 18.6949 28.5911C18.7313 28.5092 18.75 28.4211 18.75 28.3322C18.75 28.2432 18.7313 28.1552 18.6949 28.0732C18.6585 27.9912 18.6052 27.917 18.5381 27.8547C18.4711 27.7926 18.3916 27.7437 18.3043 27.7111C18.2171 27.6783 18.1238 27.6625 18.03 27.6644L18.0239 27.6587Z" fill="#595653" fill-opacity="1.000000" fill-rule="nonzero"/>
	<path id="Vector" d="" fill="#E7DBD0" fill-opacity="0" fill-rule="evenodd"/>
	<path id="Vector" d="M38.2737 27.6587L37.7864 27.6587C37.7864 27.6534 37.784 27.6483 37.783 27.6434L37.7696 27.5837C37.761 27.5446 37.7518 27.5057 37.7422 27.4672C37.7382 27.449 37.7337 27.4308 37.7293 27.4127C37.7166 27.3618 37.7033 27.3109 37.6896 27.26L37.6855 27.2455C37.6705 27.1904 37.6548 27.1355 37.6384 27.0808L37.6219 27.0281C37.6107 26.9905 37.5987 26.9532 37.5878 26.9159C37.5813 26.8955 37.5745 26.8755 37.568 26.8553C37.556 26.8193 37.5437 26.7834 37.5311 26.7478C37.5245 26.729 37.5177 26.7098 37.5112 26.6914C37.4953 26.6466 37.4789 26.6023 37.462 26.5582C37.4583 26.5488 37.4552 26.5397 37.4514 26.5303C37.4316 26.4785 37.4107 26.427 37.3895 26.3755C37.382 26.3567 37.3741 26.3381 37.3663 26.3197C37.3519 26.2874 37.3376 26.2517 37.3229 26.2179L37.2952 26.1554C37.2809 26.123 37.2662 26.0906 37.2511 26.0582C37.2419 26.0381 37.2323 26.0177 37.2227 25.9976C37.2053 25.9603 37.1886 25.9233 37.1691 25.8867C37.1619 25.8728 37.1554 25.8586 37.1483 25.8444C37.124 25.796 37.099 25.7471 37.0737 25.7004L37.0396 25.6399L36.9913 25.552L36.9537 25.4872C36.938 25.46 36.9223 25.4329 36.9062 25.4056C36.8936 25.3835 36.8806 25.3616 36.8676 25.3408C36.8499 25.3113 36.8334 25.2825 36.814 25.2533L36.7648 25.1742C36.7415 25.1379 36.7183 25.1013 36.6943 25.0653C36.6793 25.0426 36.6642 25.0203 36.6489 24.9979C36.6335 24.9756 36.6168 24.95 36.6003 24.9263C36.5839 24.9027 36.5662 24.879 36.5511 24.8557C36.5361 24.8324 36.5197 24.8113 36.5036 24.7909C36.4875 24.7705 36.4694 24.7433 36.452 24.7196L36.4038 24.6548C36.3696 24.6117 36.3382 24.5686 36.3047 24.5251L36.2579 24.4658C36.238 24.4409 36.2175 24.4163 36.1974 24.3916L36.1522 24.3373C36.1314 24.3123 36.1102 24.2876 36.089 24.2627L36.0446 24.2115L35.9783 24.1364L35.939 24.0929C35.8573 24.0032 35.7736 23.9147 35.6877 23.8285L35.6501 23.7905L35.5715 23.7137L35.5329 23.6769C35.5056 23.6506 35.4782 23.6246 35.4506 23.599L35.4222 23.5731C35.3254 23.484 35.226 23.3972 35.1248 23.314L35.0971 23.2909C35.0659 23.265 35.0345 23.2394 35.0028 23.2141L34.9713 23.1888C34.9371 23.1628 34.9061 23.1373 34.8729 23.1117L34.8561 23.0991C34.7444 23.0135 34.6299 22.9302 34.5143 22.8502L34.4983 22.8389C34.4617 22.814 34.4252 22.7893 34.3882 22.765L34.364 22.7491C34.3264 22.7241 34.2885 22.6998 34.2505 22.6755L34.244 22.6716C34.1182 22.5919 33.9901 22.5156 33.8595 22.4425L33.8544 22.4393C33.813 22.4163 33.7717 22.3939 33.7303 22.3716L33.7122 22.3618C33.4921 22.2441 33.266 22.1361 33.0341 22.0378L33.0197 22.0316C32.9585 22.0057 32.897 21.9808 32.8348 21.9562L34.058 21.9562C34.2573 21.9562 34.419 21.7388 34.419 21.4701C34.419 21.2015 34.2573 20.984 34.058 20.984L33.6937 20.984C33.7162 20.9296 33.7412 20.868 33.7682 20.7987C34.1127 20.5952 34.7191 20.1616 35.3207 19.3651L35.3254 19.359C35.371 19.2993 35.4158 19.2377 35.4598 19.174L35.4686 19.1614C35.5124 19.0988 35.5562 19.0343 35.5992 18.9669L35.6108 18.9491C35.6313 18.9166 35.6519 18.8843 35.6724 18.8518C35.6724 18.8518 35.6724 18.8492 35.6747 18.8477C35.6959 18.8153 35.7168 18.7797 35.7377 18.745L35.751 18.7225C35.7687 18.6927 35.7869 18.6624 35.8043 18.6315C35.8077 18.626 35.8112 18.6205 35.8142 18.6146C35.8344 18.5797 35.8546 18.5441 35.8744 18.5081L35.8881 18.4832C35.9044 18.4532 35.9205 18.4232 35.9366 18.3927C35.9413 18.3843 35.9462 18.3755 35.9506 18.3668C35.9697 18.3302 35.9889 18.2932 36.008 18.2556L36.0214 18.2294C36.0364 18.199 36.0518 18.1678 36.0668 18.1367L36.0832 18.1042C36.1017 18.066 36.1198 18.0272 36.1379 17.988L36.1492 17.963C36.1642 17.9307 36.1789 17.8982 36.1936 17.8658L36.2111 17.8269C36.2281 17.7877 36.2452 17.7482 36.2616 17.7084C36.2647 17.7012 36.2678 17.6937 36.2705 17.6866C36.2859 17.65 36.3009 17.6128 36.316 17.5752L36.3331 17.5323C36.347 17.4967 36.3611 17.4608 36.3748 17.4248L36.385 17.3976C36.4011 17.3549 36.4168 17.311 36.4325 17.2679L36.4489 17.2219C36.4612 17.1876 36.4732 17.1526 36.4852 17.1176C36.4896 17.1046 36.494 17.0917 36.4982 17.0787C36.5132 17.0341 36.5282 16.9883 36.5429 16.9426C36.5477 16.9268 36.5529 16.9102 36.5576 16.8953L36.5918 16.7887C36.5963 16.7732 36.601 16.7563 36.6055 16.7423C36.6195 16.6954 36.6335 16.6475 36.6469 16.5991C36.6512 16.5839 36.6554 16.5684 36.6595 16.5529C36.6697 16.5155 36.68 16.4783 36.6899 16.4403C36.6943 16.4232 36.6988 16.406 36.7036 16.3888C36.7162 16.339 36.7289 16.2887 36.7411 16.2378L36.7514 16.1954C36.761 16.1549 36.7706 16.114 36.7798 16.0729L36.7921 16.0178C36.8037 15.965 36.8153 15.9122 36.8263 15.8584C36.8287 15.848 36.8307 15.8373 36.8328 15.8259C36.8423 15.7797 36.8516 15.7327 36.8605 15.6857C36.8642 15.6665 36.8676 15.6475 36.8714 15.6283C36.8802 15.5801 36.8888 15.5311 36.8973 15.4828C36.899 15.4724 36.9011 15.4624 36.9028 15.4524C36.9124 15.3954 36.9218 15.3379 36.9308 15.28C36.934 15.2605 36.937 15.2411 36.9398 15.2213C36.9469 15.1743 36.9537 15.1271 36.9606 15.0791L36.9667 15.035C36.975 14.9753 36.9828 14.9154 36.9904 14.8545C36.9927 14.8353 36.9948 14.8163 36.9972 14.7969C37.0031 14.7484 37.0085 14.6998 37.0135 14.651C37.0156 14.6335 37.0177 14.6163 37.0194 14.5989C37.026 14.5361 37.0322 14.473 37.0378 14.4093C37.0378 14.3915 37.0409 14.3737 37.0423 14.3555C37.0468 14.3043 37.0511 14.2528 37.0549 14.2009C37.0549 14.1818 37.058 14.1627 37.0594 14.1436C37.0641 14.0775 37.0686 14.0109 37.0727 13.944C37.0727 13.9287 37.0727 13.9115 37.0751 13.8979C37.0782 13.8422 37.0812 13.7861 37.0836 13.7297C37.0836 13.7094 37.0836 13.689 37.0864 13.6686C37.0891 13.5989 37.0919 13.5288 37.0939 13.4579C37.0939 13.4481 37.0939 13.4381 37.0939 13.4281C37.0957 13.365 37.0971 13.3013 37.098 13.2369C37.098 13.2158 37.098 13.1948 37.098 13.1737C37.098 13.1046 37.098 13.035 37.098 12.9651L37.098 12.9489C37.098 12.8743 37.098 12.7988 37.098 12.722L37.098 12.6572C37.098 12.5924 37.0953 12.5243 37.0936 12.4569L37.0936 12.4203C37.0912 12.3425 37.0881 12.2638 37.085 12.1847C37.085 12.1643 37.0829 12.1436 37.0823 12.1232C37.0793 12.0566 37.0759 11.9896 37.072 11.9222C37.072 11.9058 37.072 11.8899 37.0693 11.8721C37.0645 11.791 37.0593 11.7094 37.0536 11.6271L37.0494 11.5697C37.0443 11.501 37.0392 11.432 37.0334 11.3623C37.0334 11.3423 37.0303 11.3221 37.0286 11.302C37.0214 11.2178 37.0135 11.1326 37.0054 11.047C37.0054 11.0309 37.002 11.0146 37.0006 10.998C36.9934 10.9252 36.9855 10.8517 36.9777 10.7775C36.9753 10.7551 36.9729 10.733 36.9702 10.7107C36.9606 10.6226 36.9503 10.5341 36.9394 10.4443C36.9394 10.4333 36.9363 10.4222 36.9349 10.4119C36.9252 10.3315 36.9148 10.2507 36.9039 10.1696C36.9005 10.1455 36.8973 10.1216 36.8939 10.0977C36.8812 10.0056 36.8681 9.91284 36.8546 9.81921C35.4874 0.592529 25.799 2.08997 25.799 2.08997L26.1093 4.07239L20.2499 9.9408L20.5059 12.2068L22.7255 13.5029C22.8245 13.2645 22.9515 13.0375 23.1042 12.826C24.5363 11.2599 27.3148 10.0305 28.1102 9.77551C28.2694 9.72461 28.36 9.69897 28.36 9.69897C24.5555 14.3672 24.9882 19.7151 25.1577 20.9899C24.9813 21.0223 24.845 21.2241 24.845 21.4705C24.845 21.7388 25.0067 21.9565 25.2059 21.9565L26.4292 21.9565C24.3947 22.7639 22.7798 24.3015 21.937 26.2339C21.936 26.2365 21.9349 26.239 21.9335 26.2416C21.8713 26.385 21.8135 26.5305 21.7599 26.6781C21.76 26.6796 21.76 26.6812 21.7599 26.6826C21.7456 26.7228 21.7316 26.7629 21.7179 26.8035C21.7128 26.8181 21.7076 26.8326 21.7028 26.8475C21.6906 26.8839 21.6791 26.9204 21.6686 26.9574C21.6625 26.9762 21.6567 26.9954 21.6509 27.0142C21.64 27.0488 21.6294 27.0837 21.6191 27.1188L21.6006 27.1836C21.5911 27.2159 21.5815 27.2506 21.5726 27.2844C21.5662 27.3083 21.56 27.332 21.5538 27.356C21.5457 27.3884 21.5371 27.4208 21.5292 27.4532C21.5214 27.4856 21.5139 27.5179 21.5063 27.5524C21.4988 27.5867 21.4893 27.6268 21.481 27.6644L20.9933 27.6644C20.8995 27.6625 20.8062 27.6783 20.719 27.7111C20.6317 27.7437 20.5522 27.7926 20.4852 27.8547C20.4181 27.917 20.3648 27.9912 20.3284 28.0732C20.2921 28.1552 20.2733 28.2432 20.2733 28.3322C20.2733 28.4211 20.2921 28.5092 20.3284 28.5911C20.3648 28.6731 20.4181 28.7473 20.4852 28.8096C20.5522 28.8717 20.6317 28.9207 20.719 28.9532C20.8062 28.986 20.8995 29.0018 20.9933 28.9999L38.2799 28.9999C38.3737 29.0018 38.467 28.986 38.5542 28.9532C38.6415 28.9207 38.7209 28.8717 38.788 28.8096C38.8551 28.7473 38.9084 28.6731 38.9448 28.5911C38.9811 28.5092 38.9999 28.4211 38.9999 28.3322C38.9999 28.2432 38.9811 28.1552 38.9448 28.0732C38.9084 27.9912 38.8551 27.917 38.788 27.8547C38.7209 27.7926 38.6415 27.7437 38.5542 27.7111C38.467 27.6783 38.3737 27.6625 38.2799 27.6644L38.2737 27.6587Z" fill="#595653" fill-opacity="1.000000" fill-rule="nonzero"/>
	<path id="Vector" d="" fill="#E7DBD0" fill-opacity="0" fill-rule="evenodd"/>
	<path id="Vector" d="M58.5242 27.6587L58.0367 27.6587C58.0367 27.6534 58.0343 27.6483 58.0333 27.6434L58.02 27.5837C58.0115 27.5446 58.0022 27.5057 57.9927 27.4672C57.9885 27.449 57.9841 27.4308 57.9796 27.4127C57.967 27.3618 57.9537 27.3109 57.9401 27.26L57.9359 27.2455C57.9209 27.1904 57.9052 27.1355 57.8888 27.0808L57.8723 27.0281C57.8611 26.9905 57.8491 26.9532 57.8381 26.9159C57.8317 26.8955 57.8248 26.8755 57.8184 26.8553C57.8064 26.8193 57.7941 26.7834 57.7814 26.7478C57.7749 26.729 57.7681 26.7098 57.7616 26.6914C57.7456 26.6466 57.7292 26.6023 57.7124 26.5582C57.7086 26.5488 57.7056 26.5397 57.7018 26.5303C57.682 26.4785 57.6611 26.427 57.6399 26.3755C57.6324 26.3567 57.6245 26.3381 57.6167 26.3197C57.6023 26.2874 57.588 26.2517 57.5732 26.2179L57.5455 26.1554C57.5312 26.123 57.5165 26.0906 57.5015 26.0582C57.4923 26.0381 57.4827 26.0177 57.4731 25.9976C57.4557 25.9603 57.439 25.9233 57.4194 25.8867C57.4122 25.8728 57.4058 25.8586 57.3986 25.8444C57.3744 25.796 57.3494 25.7471 57.3241 25.7004L57.2899 25.6399L57.2417 25.552L57.2041 25.4872C57.1884 25.46 57.1727 25.4329 57.1566 25.4056C57.1439 25.3835 57.131 25.3616 57.118 25.3408C57.1002 25.3113 57.0839 25.2825 57.0643 25.2533L57.0151 25.1742C56.9918 25.1379 56.9686 25.1013 56.9447 25.0653C56.9297 25.0426 56.9147 25.0203 56.8993 24.9979C56.8839 24.9756 56.8671 24.95 56.8507 24.9263C56.8344 24.9027 56.8165 24.879 56.8015 24.8557C56.7865 24.8324 56.77 24.8113 56.754 24.7909C56.7379 24.7705 56.7198 24.7433 56.7024 24.7196L56.6542 24.6548C56.62 24.6117 56.5885 24.5686 56.5551 24.5251L56.5082 24.4658C56.4884 24.4409 56.4679 24.4163 56.4478 24.3916L56.4026 24.3373C56.3817 24.3123 56.3606 24.2876 56.3394 24.2627L56.2949 24.2115L56.2286 24.1364L56.1893 24.0929C56.1077 24.0032 56.0239 23.9147 55.9381 23.8285L55.9005 23.7905L55.8219 23.7137L55.7833 23.6769C55.756 23.6506 55.7286 23.6246 55.7009 23.599L55.6725 23.5731C55.5758 23.484 55.4763 23.3972 55.3751 23.314L55.3475 23.2909C55.3163 23.265 55.2848 23.2394 55.2532 23.2141L55.2217 23.1888C55.1875 23.1628 55.1564 23.1373 55.1233 23.1117L55.1066 23.0991C54.9948 23.0135 54.8802 22.9302 54.7648 22.8502L54.7487 22.8389C54.712 22.814 54.6755 22.7893 54.6385 22.765L54.6144 22.7491C54.5768 22.7241 54.5388 22.6998 54.5009 22.6755L54.4944 22.6716C54.3685 22.5919 54.2404 22.5156 54.1099 22.4425L54.1047 22.4393C54.0634 22.4163 54.022 22.3939 53.9806 22.3716L53.9625 22.3618C53.7424 22.2441 53.5164 22.1361 53.2844 22.0378L53.27 22.0316C53.2089 22.0057 53.1473 21.9808 53.0852 21.9562L54.3085 21.9562C54.5077 21.9562 54.6693 21.7388 54.6693 21.4701C54.6693 21.2015 54.5077 20.984 54.3085 20.984L53.9441 20.984C53.9667 20.9296 53.9916 20.868 54.0186 20.7987C54.3632 20.5952 54.9695 20.1616 55.571 19.3651L55.5758 19.359C55.6213 19.2993 55.6661 19.2377 55.7101 19.174L55.719 19.1614C55.7628 19.0988 55.8065 19.0343 55.8496 18.9669L55.8612 18.9491C55.8817 18.9166 55.9022 18.8843 55.9227 18.8518C55.9227 18.8518 55.9227 18.8492 55.9252 18.8477C55.9463 18.8153 55.9672 18.7797 55.988 18.745L56.0013 18.7225C56.0192 18.6927 56.0372 18.6624 56.0547 18.6315C56.0581 18.626 56.0615 18.6205 56.0646 18.6146C56.0847 18.5797 56.1049 18.5441 56.1248 18.5081L56.1384 18.4832C56.1548 18.4532 56.1709 18.4232 56.1869 18.3927C56.1918 18.3843 56.1965 18.3755 56.2009 18.3668C56.2201 18.3302 56.2393 18.2932 56.2584 18.2556L56.2717 18.2294C56.2867 18.199 56.3021 18.1678 56.3171 18.1367L56.3336 18.1042C56.3521 18.066 56.3701 18.0272 56.3883 17.988L56.3995 17.963C56.4146 17.9307 56.4293 17.8982 56.444 17.8658L56.4614 17.8269C56.4785 17.7877 56.4956 17.7482 56.512 17.7084C56.515 17.7012 56.5182 17.6937 56.5209 17.6866C56.5363 17.65 56.5513 17.6128 56.5663 17.5752L56.5834 17.5323C56.5974 17.4967 56.6115 17.4608 56.6251 17.4248L56.6354 17.3976C56.6515 17.3549 56.6671 17.311 56.6829 17.2679L56.6993 17.2219C56.7115 17.1876 56.7235 17.1526 56.7355 17.1176C56.74 17.1046 56.7444 17.0917 56.7485 17.0787C56.7635 17.0341 56.7786 16.9883 56.7933 16.9426C56.7981 16.9268 56.8032 16.9102 56.808 16.8953L56.8422 16.7887C56.8466 16.7732 56.8514 16.7563 56.8558 16.7423C56.8699 16.6954 56.8839 16.6475 56.8972 16.5991C56.9016 16.5839 56.9058 16.5684 56.9098 16.5529C56.92 16.5155 56.9303 16.4783 56.9403 16.4403C56.9447 16.4232 56.9491 16.406 56.954 16.3888C56.9666 16.339 56.9792 16.2887 56.9916 16.2378L57.0018 16.1954C57.0114 16.1549 57.0209 16.114 57.0302 16.0729L57.0425 16.0178C57.0541 15.965 57.0657 15.9122 57.0767 15.8584C57.079 15.848 57.0811 15.8373 57.0831 15.8259C57.0927 15.7797 57.1019 15.7327 57.1108 15.6857C57.1146 15.6665 57.118 15.6475 57.1217 15.6283C57.1306 15.5801 57.1392 15.5311 57.1477 15.4828C57.1494 15.4724 57.1515 15.4624 57.1532 15.4524C57.1627 15.3954 57.1721 15.3379 57.1813 15.28C57.1843 15.2605 57.1874 15.2411 57.1901 15.2213C57.1973 15.1743 57.2041 15.1271 57.2109 15.0791L57.2172 15.035C57.2253 14.9753 57.2332 14.9154 57.2407 14.8545C57.243 14.8353 57.2451 14.8163 57.2476 14.7969C57.2534 14.7484 57.2589 14.6998 57.2639 14.651C57.266 14.6335 57.2681 14.6163 57.2698 14.5989C57.2764 14.5361 57.2825 14.473 57.2882 14.4093C57.2882 14.3915 57.2913 14.3737 57.2926 14.3555C57.2971 14.3043 57.3015 14.2528 57.3053 14.2009C57.3053 14.1818 57.3083 14.1627 57.3097 14.1436C57.3146 14.0775 57.319 14.0109 57.3231 13.944C57.3231 13.9287 57.3231 13.9115 57.3254 13.8979C57.3285 13.8422 57.3317 13.7861 57.334 13.7297C57.334 13.7094 57.334 13.689 57.3368 13.6686C57.3395 13.5989 57.3422 13.5288 57.3442 13.4579C57.3442 13.4481 57.3442 13.4381 57.3442 13.4281C57.3461 13.365 57.3474 13.3013 57.3484 13.2369C57.3484 13.2158 57.3484 13.1948 57.3484 13.1737C57.3484 13.1046 57.3484 13.035 57.3484 12.9651L57.3484 12.9489C57.3484 12.8743 57.3484 12.7988 57.3484 12.722L57.3484 12.6572C57.3484 12.5924 57.3456 12.5243 57.3439 12.4569L57.3439 12.4203C57.3416 12.3425 57.3385 12.2638 57.3353 12.1847C57.3353 12.1643 57.3334 12.1436 57.3326 12.1232C57.3297 12.0566 57.3263 11.9896 57.3224 11.9222C57.3224 11.9058 57.3224 11.8899 57.3197 11.8721C57.3148 11.791 57.3096 11.7094 57.304 11.6271L57.2998 11.5697C57.2947 11.501 57.2896 11.432 57.2838 11.3623C57.2838 11.3423 57.2806 11.3221 57.2789 11.302C57.2719 11.2178 57.2639 11.1326 57.2557 11.047C57.2557 11.0309 57.2523 11.0146 57.251 10.998C57.2438 10.9252 57.236 10.8517 57.228 10.7775C57.2257 10.7551 57.2233 10.733 57.2206 10.7107C57.2109 10.6226 57.2007 10.5341 57.1898 10.4443C57.1898 10.4333 57.1866 10.4222 57.1853 10.4119C57.1755 10.3315 57.1652 10.2507 57.1542 10.1696C57.1508 10.1455 57.1477 10.1216 57.1443 10.0977C57.1316 10.0056 57.1184 9.91284 57.105 9.81921C55.7378 0.592529 46.0493 2.08997 46.0493 2.08997L46.3596 4.07239L40.5002 9.9408L40.7562 12.2068L42.9759 13.5029C43.0748 13.2645 43.2018 13.0375 43.3546 12.826C44.7867 11.2599 47.5652 10.0305 48.3605 9.77551C48.5198 9.72461 48.6104 9.69897 48.6104 9.69897C44.8058 14.3672 45.2385 19.7151 45.4081 20.9899C45.2317 21.0223 45.0953 21.2241 45.0953 21.4705C45.0953 21.7388 45.257 21.9565 45.4563 21.9565L46.6796 21.9565C44.6451 22.7639 43.0302 24.3015 42.1873 26.2339C42.1863 26.2365 42.1852 26.239 42.1839 26.2416C42.1217 26.385 42.0638 26.5305 42.0103 26.6781C42.0104 26.6796 42.0104 26.6812 42.0103 26.6826C41.996 26.7228 41.9819 26.7629 41.9683 26.8035C41.9631 26.8181 41.958 26.8326 41.9532 26.8475C41.9409 26.8839 41.9295 26.9204 41.919 26.9574C41.9129 26.9762 41.907 26.9954 41.9012 27.0142C41.8903 27.0488 41.8798 27.0837 41.8695 27.1188L41.851 27.1836C41.8414 27.2159 41.8319 27.2506 41.823 27.2844C41.8165 27.3083 41.8104 27.332 41.8042 27.356C41.796 27.3884 41.7875 27.4208 41.7796 27.4532C41.7717 27.4856 41.7642 27.5179 41.7567 27.5524C41.7491 27.5867 41.7396 27.6268 41.7314 27.6644L41.2437 27.6644C41.1498 27.6625 41.0566 27.6783 40.9694 27.7111C40.8821 27.7437 40.8026 27.7926 40.7355 27.8547C40.6685 27.917 40.6152 27.9912 40.5788 28.0732C40.5424 28.1552 40.5237 28.2432 40.5237 28.3322C40.5237 28.4211 40.5424 28.5092 40.5788 28.5911C40.6152 28.6731 40.6685 28.7473 40.7355 28.8096C40.8026 28.8717 40.8821 28.9207 40.9694 28.9532C41.0566 28.986 41.1498 29.0018 41.2437 28.9999L58.5303 28.9999C58.624 29.0018 58.7173 28.986 58.8046 28.9532C58.8918 28.9207 58.9713 28.8717 59.0385 28.8096C59.1055 28.7473 59.1587 28.6731 59.1951 28.5911C59.2314 28.5092 59.2502 28.4211 59.2502 28.3322C59.2502 28.2432 59.2314 28.1552 59.1951 28.0732C59.1587 27.9912 59.1055 27.917 59.0385 27.8547C58.9713 27.7926 58.8918 27.7437 58.8046 27.7111C58.7173 27.6783 58.624 27.6625 58.5303 27.6644L58.5242 27.6587Z" fill="#595653" fill-opacity="1.000000" fill-rule="nonzero"/>
	<path id="Vector" d="" fill="#E7DBD0" fill-opacity="0" fill-rule="evenodd"/>
	<path id="Vector" d="M78.774 27.6587L78.2866 27.6587C78.2866 27.6534 78.2842 27.6483 78.2832 27.6434L78.2699 27.5837C78.2614 27.5446 78.2521 27.5057 78.2426 27.4672C78.2384 27.449 78.234 27.4308 78.2295 27.4127C78.2169 27.3618 78.2036 27.3109 78.1899 27.26L78.1858 27.2455C78.1708 27.1904 78.155 27.1355 78.1387 27.0808L78.1222 27.0281C78.111 26.9905 78.099 26.9532 78.088 26.9159C78.0815 26.8955 78.0747 26.8755 78.0682 26.8553C78.0563 26.8193 78.0439 26.7834 78.0312 26.7478C78.0248 26.729 78.0179 26.7098 78.0115 26.6914C77.9955 26.6466 77.9791 26.6023 77.9623 26.5582C77.9585 26.5488 77.9554 26.5397 77.9517 26.5303C77.9319 26.4785 77.911 26.427 77.8898 26.3755C77.8823 26.3567 77.8744 26.3381 77.8666 26.3197C77.8522 26.2874 77.8379 26.2517 77.8231 26.2179L77.7954 26.1554C77.7811 26.123 77.7664 26.0906 77.7513 26.0582C77.7422 26.0381 77.7325 26.0177 77.723 25.9976C77.7056 25.9603 77.6888 25.9233 77.6693 25.8867C77.6621 25.8728 77.6556 25.8586 77.6484 25.8444C77.6243 25.796 77.5992 25.7471 77.574 25.7004L77.5398 25.6399L77.4916 25.552L77.454 25.4872C77.4382 25.46 77.4226 25.4329 77.4065 25.4056C77.3938 25.3835 77.3809 25.3616 77.3679 25.3408C77.3501 25.3113 77.3337 25.2825 77.3142 25.2533L77.265 25.1742C77.2417 25.1379 77.2185 25.1013 77.1946 25.0653C77.1796 25.0426 77.1646 25.0203 77.1492 24.9979C77.1338 24.9756 77.1169 24.95 77.1006 24.9263C77.0842 24.9027 77.0664 24.879 77.0514 24.8557C77.0364 24.8324 77.0199 24.8113 77.0039 24.7909C76.9878 24.7705 76.9697 24.7433 76.9523 24.7196L76.9041 24.6548C76.8699 24.6117 76.8384 24.5686 76.8049 24.5251L76.7581 24.4658C76.7383 24.4409 76.7178 24.4163 76.6976 24.3916L76.6525 24.3373C76.6316 24.3123 76.6105 24.2876 76.5892 24.2627L76.5448 24.2115L76.4785 24.1364L76.4392 24.0929C76.3575 24.0032 76.2738 23.9147 76.188 23.8285L76.1504 23.7905L76.0718 23.7137L76.0332 23.6769C76.0059 23.6506 75.9785 23.6246 75.9508 23.599L75.9224 23.5731C75.8257 23.484 75.7262 23.3972 75.625 23.314L75.5974 23.2909C75.5662 23.265 75.5347 23.2394 75.5031 23.2141L75.4716 23.1888C75.4374 23.1628 75.4062 23.1373 75.3732 23.1117L75.3564 23.0991C75.2446 23.0135 75.1301 22.9302 75.0146 22.8502L74.9985 22.8389C74.9619 22.814 74.9254 22.7893 74.8884 22.765L74.8643 22.7491C74.8267 22.7241 74.7887 22.6998 74.7507 22.6755L74.7443 22.6716C74.6184 22.5919 74.4902 22.5156 74.3597 22.4425L74.3546 22.4393C74.3132 22.4163 74.2719 22.3939 74.2305 22.3716L74.2124 22.3618C73.9923 22.2441 73.7662 22.1361 73.5343 22.0378L73.5199 22.0316C73.4587 22.0057 73.3972 21.9808 73.3351 21.9562L74.5583 21.9562C74.7576 21.9562 74.9192 21.7388 74.9192 21.4701C74.9192 21.2015 74.7576 20.984 74.5583 20.984L74.194 20.984C74.2166 20.9296 74.2415 20.868 74.2684 20.7987C74.613 20.5952 75.2194 20.1616 75.8209 19.3651L75.8257 19.359C75.8712 19.2993 75.916 19.2377 75.96 19.174L75.9689 19.1614C76.0127 19.0988 76.0564 19.0343 76.0995 18.9669L76.1111 18.9491C76.1316 18.9166 76.1521 18.8843 76.1726 18.8518C76.1726 18.8518 76.1726 18.8492 76.175 18.8477C76.1962 18.8153 76.217 18.7797 76.2379 18.745L76.2512 18.7225C76.269 18.6927 76.2871 18.6624 76.3046 18.6315C76.308 18.626 76.3114 18.6205 76.3145 18.6146C76.3346 18.5797 76.3547 18.5441 76.3746 18.5081L76.3883 18.4832C76.4047 18.4532 76.4208 18.4232 76.4368 18.3927C76.4417 18.3843 76.4464 18.3755 76.4508 18.3668C76.47 18.3302 76.4891 18.2932 76.5083 18.2556L76.5216 18.2294C76.5366 18.199 76.552 18.1678 76.567 18.1367L76.5835 18.1042C76.6019 18.066 76.62 18.0272 76.6382 17.988L76.6494 17.963C76.6644 17.9307 76.6792 17.8982 76.6938 17.8658L76.7113 17.8269C76.7284 17.7877 76.7455 17.7482 76.7618 17.7084C76.7649 17.7012 76.7681 17.6937 76.7708 17.6866C76.7861 17.65 76.8011 17.6128 76.8162 17.5752L76.8333 17.5323C76.8473 17.4967 76.8613 17.4608 76.875 17.4248L76.8853 17.3976C76.9014 17.3549 76.917 17.311 76.9327 17.2679L76.9492 17.2219C76.9614 17.1876 76.9734 17.1526 76.9854 17.1176C76.9899 17.1046 76.9943 17.0917 76.9984 17.0787C77.0134 17.0341 77.0284 16.9883 77.0432 16.9426C77.048 16.9268 77.0531 16.9102 77.0579 16.8953L77.092 16.7887C77.0964 16.7732 77.1013 16.7563 77.1057 16.7423C77.1198 16.6954 77.1338 16.6475 77.1471 16.5991C77.1515 16.5839 77.1556 16.5684 77.1597 16.5529C77.1699 16.5155 77.1802 16.4783 77.1902 16.4403C77.1946 16.4232 77.199 16.406 77.2039 16.3888C77.2164 16.339 77.2291 16.2887 77.2415 16.2378L77.2517 16.1954C77.2612 16.1549 77.2708 16.114 77.28 16.0729L77.2924 16.0178C77.304 15.965 77.3156 15.9122 77.3265 15.8584C77.3289 15.848 77.3309 15.8373 77.333 15.8259C77.3425 15.7797 77.3518 15.7327 77.3607 15.6857C77.3645 15.6665 77.3679 15.6475 77.3716 15.6283C77.3805 15.5801 77.389 15.5311 77.3976 15.4828C77.3993 15.4724 77.4014 15.4624 77.4031 15.4524C77.4126 15.3954 77.422 15.3379 77.4312 15.28C77.4342 15.2605 77.4373 15.2411 77.4399 15.2213C77.4471 15.1743 77.454 15.1271 77.4608 15.0791L77.467 15.035C77.4752 14.9753 77.483 14.9154 77.4906 14.8545C77.4929 14.8353 77.495 14.8163 77.4974 14.7969C77.5033 14.7484 77.5088 14.6998 77.5138 14.651C77.5159 14.6335 77.5179 14.6163 77.5197 14.5989C77.5262 14.5361 77.5323 14.473 77.5381 14.4093C77.5381 14.3915 77.5411 14.3737 77.5425 14.3555C77.547 14.3043 77.5514 14.2528 77.5552 14.2009C77.5552 14.1818 77.5582 14.1627 77.5596 14.1436C77.5645 14.0775 77.5688 14.0109 77.573 13.944C77.573 13.9287 77.573 13.9115 77.5753 13.8979C77.5784 13.8422 77.5815 13.7861 77.5839 13.7297C77.5839 13.7094 77.5839 13.689 77.5867 13.6686C77.5894 13.5989 77.592 13.5288 77.5941 13.4579C77.5941 13.4481 77.5941 13.4381 77.5941 13.4281C77.5959 13.365 77.5973 13.3013 77.5983 13.2369C77.5983 13.2158 77.5983 13.1948 77.5983 13.1737C77.5983 13.1046 77.5983 13.035 77.5983 12.9651L77.5983 12.9489C77.5983 12.8743 77.5983 12.7988 77.5983 12.722L77.5983 12.6572C77.5983 12.5924 77.5955 12.5243 77.5938 12.4569L77.5938 12.4203C77.5914 12.3425 77.5884 12.2638 77.5852 12.1847C77.5852 12.1643 77.5833 12.1436 77.5825 12.1232C77.5796 12.0566 77.5762 11.9896 77.5723 11.9222C77.5723 11.9058 77.5723 11.8899 77.5696 11.8721C77.5647 11.791 77.5594 11.7094 77.5538 11.6271L77.5497 11.5697C77.5446 11.501 77.5394 11.432 77.5337 11.3623C77.5337 11.3423 77.5305 11.3221 77.5288 11.302C77.5217 11.2178 77.5138 11.1326 77.5056 11.047C77.5056 11.0309 77.5022 11.0146 77.5009 10.998C77.4937 10.9252 77.4858 10.8517 77.4779 10.7775C77.4756 10.7551 77.4731 10.733 77.4705 10.7107C77.4608 10.6226 77.4506 10.5341 77.4397 10.4443C77.4397 10.4333 77.4365 10.4222 77.4352 10.4119C77.4254 10.3315 77.415 10.2507 77.4041 10.1696C77.4006 10.1455 77.3976 10.1216 77.3942 10.0977C77.3815 10.0056 77.3683 9.91284 77.3549 9.81921C75.9877 0.592529 66.2992 2.08997 66.2992 2.08997L66.6095 4.07239L60.7501 9.9408L61.0061 12.2068L63.2257 13.5029C63.3247 13.2645 63.4518 13.0375 63.6045 12.826C65.0366 11.2599 67.8151 10.0305 68.6104 9.77551C68.7697 9.72461 68.8602 9.69897 68.8602 9.69897C65.0557 14.3672 65.4884 19.7151 65.658 20.9899C65.4816 21.0223 65.3452 21.2241 65.3452 21.4705C65.3452 21.7388 65.5068 21.9565 65.7062 21.9565L66.9294 21.9565C64.8949 22.7639 63.28 24.3015 62.4373 26.2339C62.4363 26.2365 62.4351 26.239 62.4338 26.2416C62.3716 26.385 62.3137 26.5305 62.2601 26.6781C62.2603 26.6796 62.2603 26.6812 62.2601 26.6826C62.2458 26.7228 62.2318 26.7629 62.2181 26.8035C62.213 26.8181 62.2079 26.8326 62.2031 26.8475C62.1908 26.8839 62.1794 26.9204 62.1689 26.9574C62.1627 26.9762 62.157 26.9954 62.1511 27.0142C62.1403 27.0488 62.1296 27.0837 62.1194 27.1188L62.101 27.1836C62.0913 27.2159 62.0818 27.2506 62.0729 27.2844C62.0664 27.3083 62.0602 27.332 62.0541 27.356C62.0459 27.3884 62.0374 27.4208 62.0294 27.4532C62.0216 27.4856 62.014 27.5179 62.0066 27.5524C61.999 27.5867 61.9895 27.6268 61.9813 27.6644L61.4935 27.6644C61.3998 27.6625 61.3065 27.6783 61.2192 27.7111C61.132 27.7437 61.0525 27.7926 60.9855 27.8547C60.9183 27.917 60.8651 27.9912 60.8287 28.0732C60.7924 28.1552 60.7736 28.2432 60.7736 28.3322C60.7736 28.4211 60.7924 28.5092 60.8287 28.5911C60.8651 28.6731 60.9183 28.7473 60.9855 28.8096C61.0525 28.8717 61.132 28.9207 61.2192 28.9532C61.3065 28.986 61.3998 29.0018 61.4935 28.9999L78.7802 28.9999C78.8739 29.0018 78.9672 28.986 79.0544 28.9532C79.1417 28.9207 79.2212 28.8717 79.2883 28.8096C79.3553 28.7473 79.4086 28.6731 79.4449 28.5911C79.4813 28.5092 79.5001 28.4211 79.5001 28.3322C79.5001 28.2432 79.4813 28.1552 79.4449 28.0732C79.4086 27.9912 79.3553 27.917 79.2883 27.8547C79.2212 27.7926 79.1417 27.7437 79.0544 27.7111C78.9672 27.6783 78.8739 27.6625 78.7802 27.6644L78.774 27.6587Z" fill="#595653" fill-opacity="1.000000" fill-rule="nonzero"/>
	<path id="Vector" d="" fill="#E7DBD0" fill-opacity="0" fill-rule="evenodd"/>
	<path id="Клуб четырех коней" d="M86.0092 13.4787L86.0092 3.38638L88.6044 3.38638L88.6044 7.38004L89.3253 7.38004L92.4106 3.38638L95.2365 3.38638L91.3437 8.10092L95.3806 13.4787L92.353 13.4787L89.3253 9.19666L88.6044 9.19666L88.6044 13.4787L86.0092 13.4787ZM96.8224 13.6661C96.7455 13.6661 96.635 13.6613 96.4908 13.6517C96.3562 13.6517 96.2505 13.6421 96.1736 13.6228L96.1736 11.3449C96.2024 11.3545 96.2745 11.3593 96.3899 11.3593C96.5821 11.3593 96.7455 11.3353 96.8801 11.2872C97.0242 11.2295 97.1444 11.1142 97.2405 10.9412C97.3366 10.7586 97.4183 10.4942 97.4856 10.1482C97.5625 9.80219 97.6154 9.34083 97.6442 8.76413C97.673 8.17782 97.6875 7.44252 97.6875 6.55824L97.6875 3.38638L105.329 3.38638L105.329 13.4787L102.719 13.4787L102.719 5.50576L100.11 5.50576L100.11 6.84659C100.11 8.04806 100.062 9.05729 99.9654 9.87428C99.8693 10.6817 99.7251 11.3353 99.5329 11.8351C99.3503 12.3349 99.1244 12.7193 98.8553 12.9885C98.5861 13.248 98.2786 13.4258 97.9325 13.5219C97.5961 13.618 97.2261 13.6661 96.8224 13.6661ZM109.372 13.6661C109.267 13.6661 109.161 13.6613 109.055 13.6517C108.959 13.6517 108.873 13.6373 108.796 13.6084L108.796 11.4602C108.873 11.4698 108.95 11.4794 109.026 11.489C109.103 11.4987 109.195 11.5035 109.3 11.5035C109.579 11.5035 109.795 11.4842 109.949 11.4458C110.103 11.3977 110.223 11.3208 110.31 11.2151C110.396 11.0998 110.468 10.946 110.526 10.7538L106.475 3.38638L109.113 3.38638L111.795 8.50461L113.9 3.38638L116.437 3.38638L113.063 11.0133C112.842 11.5131 112.621 11.9312 112.4 12.2676C112.189 12.604 111.944 12.8779 111.665 13.0894C111.396 13.2912 111.074 13.4354 110.699 13.5219C110.334 13.618 109.891 13.6661 109.372 13.6661ZM117.59 13.4787L117.59 3.38638L125.015 3.38638L125.015 5.52018L120.185 5.52018L120.185 7.01961L121.843 7.01961C123.246 7.01961 124.28 7.30796 124.943 7.88466C125.616 8.45175 125.952 9.21588 125.952 10.1771C125.952 11.2151 125.616 12.0273 124.943 12.6136C124.28 13.1903 123.246 13.4787 121.843 13.4787L117.59 13.4787ZM120.185 11.3449L121.555 11.3449C122.179 11.3449 122.622 11.2439 122.881 11.0421C123.141 10.8306 123.27 10.5423 123.27 10.1771C123.27 9.81181 123.141 9.52826 122.881 9.32642C122.622 9.11496 122.179 9.00923 121.555 9.00923L120.185 9.00923L120.185 11.3449ZM91.2572 29.4787L91.2572 25.4562C91.0073 25.6196 90.6757 25.7686 90.2624 25.9031C89.8587 26.0281 89.3781 26.0905 88.8207 26.0905C87.773 26.0905 86.98 25.831 86.4418 25.312C85.9131 24.7834 85.6488 23.9375 85.6488 22.7745L85.6488 19.3864L88.2439 19.3864L88.2439 22.342C88.2439 22.9091 88.3641 23.3176 88.6044 23.5675C88.8447 23.8078 89.1811 23.9279 89.6136 23.9279C90.0077 23.9279 90.3393 23.8847 90.6084 23.7982C90.8776 23.702 91.0938 23.6011 91.2572 23.4954L91.2572 19.3864L93.8668 19.3864L93.8668 29.4787L91.2572 29.4787ZM95.8791 29.4787L95.8791 19.3864L103.232 19.3864L103.232 21.376L98.4742 21.376L98.4742 23.3512L102.799 23.3512L102.799 25.2255L98.4742 25.2255L98.4742 27.489L103.232 27.489L103.232 29.4787L95.8791 29.4787ZM107.551 29.4787L107.551 21.5202L104.451 21.5202L104.451 19.3864L113.245 19.3864L113.245 21.5202L110.146 21.5202L110.146 29.4787L107.551 29.4787ZM114.549 29.4787L114.549 19.3864L117.144 19.3864L117.144 22.7313L118.369 22.7313C119.773 22.7313 120.806 23.034 121.469 23.6396C122.142 24.2451 122.478 25.0669 122.478 26.105C122.478 27.143 122.142 27.9648 121.469 28.5704C120.806 29.1759 119.773 29.4787 118.369 29.4787L114.549 29.4787ZM117.144 27.3449L118.081 27.3449C118.687 27.3449 119.124 27.2295 119.393 26.9989C119.662 26.7682 119.797 26.4702 119.797 26.105C119.797 25.7397 119.662 25.4418 119.393 25.2111C119.124 24.9804 118.687 24.8651 118.081 24.8651L117.144 24.8651L117.144 27.3449ZM123.199 29.4787L123.199 19.3864L125.794 19.3864L125.794 29.4787L123.199 29.4787ZM127.812 29.4787L127.812 19.3864L131.921 19.3864C132.863 19.3864 133.636 19.5257 134.242 19.8045C134.847 20.0736 135.294 20.4677 135.583 20.9867C135.881 21.4961 136.03 22.1113 136.03 22.8322C136.03 23.5434 135.881 24.1586 135.583 24.6776C135.294 25.1967 134.847 25.5955 134.242 25.8743C133.636 26.1434 132.863 26.278 131.921 26.278L130.407 26.278L130.407 29.4787L127.812 29.4787ZM130.407 24.1442L131.632 24.1442C132.296 24.1442 132.762 24.0336 133.031 23.8126C133.3 23.5915 133.435 23.2647 133.435 22.8322C133.435 22.3997 133.3 22.0729 133.031 21.8518C132.762 21.6307 132.296 21.5202 131.632 21.5202L130.407 21.5202L130.407 24.1442ZM137.47 29.4787L137.47 19.3864L144.823 19.3864L144.823 21.376L140.065 21.376L140.065 23.3512L144.391 23.3512L144.391 25.2255L140.065 25.2255L140.065 27.489L144.823 27.489L144.823 29.4787L137.47 29.4787ZM145.829 29.4787L149.116 24.2163L145.973 19.3864L148.842 19.3864L150.818 22.4429L152.822 19.3864L155.633 19.3864L152.504 24.1874L155.777 29.4787L152.879 29.4787L150.774 25.9464L148.669 29.4787L145.829 29.4787ZM160.747 29.4787L160.747 19.3864L163.343 19.3864L163.343 23.38L164.063 23.38L167.149 19.3864L169.975 19.3864L166.082 24.1009L170.119 29.4787L167.091 29.4787L164.063 25.1967L163.343 25.1967L163.343 29.4787L160.747 29.4787ZM175.75 29.6661C175.096 29.6661 174.472 29.57 173.876 29.3777C173.28 29.1855 172.756 28.8827 172.304 28.4694C171.853 28.0561 171.497 27.5227 171.237 26.8691C170.978 26.2059 170.848 25.4177 170.848 24.5046L170.848 24.2163C170.848 23.332 170.978 22.5727 171.237 21.9383C171.497 21.3039 171.853 20.7849 172.304 20.3812C172.756 19.9775 173.28 19.6795 173.876 19.4873C174.472 19.2951 175.096 19.199 175.75 19.199C176.423 19.199 177.052 19.2951 177.639 19.4873C178.225 19.6795 178.744 19.9775 179.196 20.3812C179.648 20.7849 180.003 21.3039 180.263 21.9383C180.522 22.5727 180.652 23.332 180.652 24.2163L180.652 24.5046C180.652 25.4177 180.522 26.2059 180.263 26.8691C180.003 27.5227 179.648 28.0561 179.196 28.4694C178.744 28.8827 178.225 29.1855 177.639 29.3777C177.052 29.57 176.423 29.6661 175.75 29.6661ZM175.736 27.5035C176.13 27.5035 176.495 27.417 176.831 27.2439C177.168 27.0613 177.437 26.7586 177.639 26.3356C177.85 25.9031 177.956 25.2928 177.956 24.5046L177.956 24.2163C177.956 23.4665 177.85 22.885 177.639 22.4717C177.437 22.0584 177.168 21.7701 176.831 21.6067C176.495 21.4433 176.13 21.3616 175.736 21.3616C175.361 21.3616 175.005 21.4433 174.669 21.6067C174.332 21.7701 174.058 22.0584 173.847 22.4717C173.636 22.885 173.53 23.4665 173.53 24.2163L173.53 24.5046C173.53 25.2928 173.636 25.9031 173.847 26.3356C174.058 26.7586 174.332 27.0613 174.669 27.2439C175.005 27.417 175.361 27.5035 175.736 27.5035ZM182.303 29.4787L182.303 19.3864L184.898 19.3864L184.898 23.2215L188.647 23.2215L188.647 19.3864L191.242 19.3864L191.242 29.4787L188.647 29.4787L188.647 25.3552L184.898 25.3552L184.898 29.4787L182.303 29.4787ZM193.257 29.4787L193.257 19.3864L200.61 19.3864L200.61 21.376L195.852 21.376L195.852 23.3512L200.178 23.3512L200.178 25.2255L195.852 25.2255L195.852 27.489L200.61 27.489L200.61 29.4787L193.257 29.4787ZM202.268 29.4787L202.268 19.3864L204.863 19.3864L204.863 25.4418L208.828 19.3864L211.207 19.3864L211.207 29.4787L208.612 29.4787L208.612 23.4233L204.647 29.4787L202.268 29.4787ZM206.738 18.8241C206.065 18.8241 205.512 18.7328 205.08 18.5502C204.657 18.3579 204.344 18.0792 204.143 17.7139C203.95 17.3487 203.854 16.8921 203.854 16.3443L205.959 16.3443C205.959 16.748 206.017 17.0219 206.132 17.1661C206.257 17.3006 206.459 17.3679 206.738 17.3679C207.016 17.3679 207.213 17.3006 207.329 17.1661C207.454 17.0219 207.516 16.748 207.516 16.3443L209.621 16.3443C209.621 16.8921 209.52 17.3487 209.318 17.7139C209.126 18.0792 208.819 18.3579 208.396 18.5502C207.973 18.7328 207.42 18.8241 206.738 18.8241Z" fill="#595653" fill-opacity="1.000000" fill-rule="evenodd"/>
</svg>
